<?xml version="1.0" encoding="UTF-8" standalone="no" ?>
<!DOCTYPE svg PUBLIC "-//W3C//DTD SVG 1.1//EN" "http://www.w3.org/Graphics/SVG/1.1/DTD/svg11.dtd">
<svg xmlns="http://www.w3.org/2000/svg" xmlns:xlink="http://www.w3.org/1999/xlink" version="1.1" width="1280" height="1024" viewBox="0 0 1280 1024" xml:space="preserve">
<desc>Created with Fabric.js 5.3.0</desc>
<defs>
</defs>
<g transform="matrix(1 0 0 1 640 512)" id="background-logo"  >
<rect style="stroke: none; stroke-width: 0; stroke-dasharray: none; stroke-linecap: butt; stroke-dashoffset: 0; stroke-linejoin: miter; stroke-miterlimit: 4; fill: rgb(0,0,0); fill-rule: nonzero; opacity: 1;"  paint-order="stroke"  x="-640" y="-512" rx="0" ry="0" width="1280" height="1024" />
</g>
<g transform="matrix(3.1511229676609163 0 0 3.1511229676609154 638.270429362881 440.7800001471412)" id="logo-logo"  >
<g style=""  paint-order="stroke"   >
		<g transform="matrix(0.24224093916507242 0 0 -0.24224093916507244 0 -16.95686574155505)"  >
<path style="stroke: none; stroke-width: 1; stroke-dasharray: none; stroke-linecap: butt; stroke-dashoffset: 0; stroke-linejoin: miter; stroke-miterlimit: 4; fill: rgb(255,255,255); fill-rule: nonzero; opacity: 1;"  paint-order="stroke"  transform=" translate(-508.58799999999997, -577.3475000000001)" d="M 349.188 656.801 C 339.086 631.3910000000001 330.59 605.1020000000001 323.688 578.297 C 320.887 567.9920000000001 318.49199999999996 557.6990000000001 316.387 547.191 C 307.09 502.89500000000004 302.188 457.398 302.09 411.898 L 302.09 388.793 L 508.59 269.496 L 715.086 388.793 L 715.086 411.898 C 714.988 457.398 710.086 502.89500000000004 700.789 547.191 C 676.289 530.59 652.09 511.49600000000004 629.391 490.59000000000003 C 631.9879999999999 471.99600000000004 633.789 453.297 634.5899999999999 434.69100000000003 L 508.5899999999999 361.898 L 382.5859999999999 434.69100000000003 C 383.3869999999999 453.297 385.1909999999999 471.99600000000004 387.7849999999999 490.59000000000003 C 389.3909999999999 502.30100000000004 391.3869999999999 513.8910000000001 393.78899999999993 525.4920000000001 C 399.5899999999999 554.301 407.48799999999994 582.6020000000001 417.28899999999993 609.8980000000001 C 420.78899999999993 619.6910000000001 424.5899999999999 629.3010000000002 428.5899999999999 638.8910000000002 C 449.3909999999999 688.5980000000002 476.5859999999999 734.0000000000002 508.5899999999999 771.7030000000002 C 540.5899999999999 734.0000000000002 567.785 688.5980000000002 588.5899999999999 638.8910000000002 C 610.6879999999999 655.6990000000002 633.387 671.0980000000002 656.2889999999999 684.5940000000002 C 626.1879999999999 751.8980000000001 585.2849999999999 811.8980000000001 536.1879999999999 858.7930000000001 L 508.58999999999986 885.1990000000001 L 480.99199999999985 858.7930000000001 C 431.89099999999985 811.8980000000001 390.99199999999985 751.8980000000001 360.88699999999983 684.594 C 356.6879999999998 675.3950000000001 352.78499999999985 666.195 349.1879999999998 656.801" stroke-linecap="round" />
</g>
		<g transform="matrix(0.24224093916507242 0 0 -0.24224093916507244 0 19.4762926293414)"  >
<path style="stroke: none; stroke-width: 1; stroke-dasharray: none; stroke-linecap: butt; stroke-dashoffset: 0; stroke-linejoin: miter; stroke-miterlimit: 4; fill: rgb(255,255,255); fill-rule: nonzero; opacity: 1;"  paint-order="stroke"  transform=" translate(-508.588, -426.947)" d="M 782.988 709.098 C 753.988 700.492 724.1880000000001 687.7969999999999 694.2850000000001 671.8009999999999 C 685.488 667.0939999999999 676.7850000000001 662.0939999999999 667.988 656.8009999999999 C 644.988 642.992 622.09 627.1909999999999 599.8870000000001 609.8979999999999 C 591.488 603.4019999999999 583.1880000000001 596.598 575.086 589.5939999999999 C 551.785 569.8009999999999 529.488 548.2969999999999 508.59000000000003 525.5899999999999 C 487.69100000000003 548.2969999999999 465.391 569.8009999999999 442.09000000000003 589.5939999999999 C 432.38700000000006 561.1949999999999 424.98800000000006 531.703 419.88700000000006 501.7029999999999 C 440.3910000000001 482.09399999999994 459.78900000000004 460.9999999999999 477.28900000000004 439.0979999999999 L 508.59000000000003 399.8979999999999 L 539.8870000000001 439.0979999999999 C 557.3870000000001 460.9999999999999 576.7850000000001 482.0939999999999 597.2890000000001 501.7029999999999 C 605.7890000000001 509.9959999999999 614.488 517.8949999999999 623.3870000000001 525.492 C 645.9920000000001 545.102 669.59 562.895 693.4920000000001 578.2969999999999 C 702.3870000000001 584.098 711.2890000000001 589.4959999999999 720.191 594.5939999999999 C 731.586 601.1949999999999 743.09 607.1909999999999 754.3910000000001 612.496 L 754.3910000000001 363.793 L 508.59 221.898 L 262.785 363.793 L 262.785 612.496 C 274.086 607.191 285.59000000000003 601.1949999999999 296.98800000000006 594.5939999999999 C 304.18800000000005 620.9019999999999 312.7850000000001 646.8009999999999 322.8910000000001 671.8009999999999 C 292.98800000000006 687.7969999999999 263.1880000000001 700.492 234.18800000000007 709.098 L 182.78500000000008 724.3979999999999 L 182.78500000000008 317.602 L 508.59 129.496 L 834.391 317.602 L 834.391 724.3979999999999 L 782.9879999999999 709.098" stroke-linecap="round" />
</g>
		<g transform="matrix(0.24224093916507242 0 0 -0.24224093916507244 -47.84210100322338 -62.84347676336847)"  >
<path style="stroke: none; stroke-width: 1; stroke-dasharray: none; stroke-linecap: butt; stroke-dashoffset: 0; stroke-linejoin: miter; stroke-miterlimit: 4; fill: rgb(255,255,255); fill-rule: nonzero; opacity: 1;"  paint-order="stroke"  transform=" translate(-311.09, -766.773)" d="M 311.09 713.648 C 340.42999999999995 713.648 364.215 737.426 364.215 766.773 C 364.215 796.1170000000001 340.42999999999995 819.898 311.09 819.898 C 281.75399999999996 819.898 257.965 796.1170000000001 257.965 766.773 C 257.965 737.426 281.75399999999996 713.648 311.09 713.648" stroke-linecap="round" />
</g>
		<g transform="matrix(0.24224093916507242 0 0 -0.24224093916507244 47.84306996698007 -62.84347676336847)"  >
<path style="stroke: none; stroke-width: 1; stroke-dasharray: none; stroke-linecap: butt; stroke-dashoffset: 0; stroke-linejoin: miter; stroke-miterlimit: 4; fill: rgb(255,255,255); fill-rule: nonzero; opacity: 1;"  paint-order="stroke"  transform=" translate(-706.09, -766.773)" d="M 706.09 713.648 C 735.426 713.648 759.215 737.426 759.215 766.773 C 759.215 796.1170000000001 735.426 819.898 706.09 819.898 C 676.746 819.898 652.965 796.1170000000001 652.965 766.773 C 652.965 737.426 676.746 713.648 706.09 713.648" stroke-linecap="round" />
</g>
</g>
</g>
<g transform="matrix(1.9211538461538462 0 0 1.9211538461538462 635.7870832351027 818.4689528033243)" id="text-logo"  >
<g style=""  paint-order="stroke"   >
		<g transform="matrix(1 0 0 1 0 0)" id="text-logo-path-0"  >
<path style="stroke: none; stroke-width: 0; stroke-dasharray: none; stroke-linecap: butt; stroke-dashoffset: 0; stroke-linejoin: miter; stroke-miterlimit: 4; fill: rgb(255,255,255); fill-rule: nonzero; opacity: 1;"  paint-order="stroke"  transform=" translate(-165.65, 15.399999999999999)" d="M 11.88 0 L 19.36 0 L 19.36 -24.64 L 29.04 -24.64 L 29.04 -30.8 L 2.2 -30.8 L 2.2 -24.64 L 11.88 -24.64 Z M 59.41 0 L 66.89 0 L 55.23 -30.8 L 47.31 -30.8 L 35.65 0 L 43.13 0 L 45.28 -5.72 L 57.25 -5.72 Z M 54.92 -11.88 L 47.62 -11.88 L 51.27 -21.52 Z M 90 0.44 C 97.35 0.44 101.17 -1.14 102.76 -4 C 103.51 -5.46 103.9 -7.3 103.9 -9.59 C 103.9 -15.58 101.13 -18.48 93.34 -18.48 L 90 -18.48 C 86.92 -18.48 85.16 -18.48 84.28 -19.36 C 83.88 -19.76 83.66 -20.46 83.66 -21.43 C 83.66 -23.41 84.19 -24.33 85.99 -24.77 C 86.87 -24.99 88.24 -25.08 90.04 -25.08 C 92.64 -25.08 93.96 -24.86 94.84 -23.5 C 95.28 -22.84 95.5 -21.78 95.5 -20.42 L 103.02 -20.42 C 103.02 -28.51 98.62 -31.24 90.04 -31.24 C 82.69 -31.24 78.87 -29.66 77.33 -26.8 C 76.53 -25.34 76.14 -23.5 76.14 -21.21 C 76.14 -15.22 78.91 -12.32 86.7 -12.32 L 90 -12.32 C 92.95 -12.32 94.84 -12.14 95.76 -11.26 C 96.16 -10.82 96.38 -10.21 96.38 -9.37 C 96.38 -7.39 95.85 -6.51 94.09 -6.07 C 93.17 -5.85 91.8 -5.72 90 -5.72 C 86.83 -5.72 85.25 -5.98 84.37 -7.3 C 83.88 -7.96 83.66 -8.98 83.66 -10.38 L 76.14 -10.38 C 76.14 -4.8 78.29 -1.8 82.34 -0.53 C 84.32 0.13 86.87 0.44 90 0.44 Z M 116.67 0 L 124.15 0 L 124.15 -11.04 L 125.82 -12.67 L 136.91 0 L 146.15 0 L 130.79 -17.51 L 144.39 -30.8 L 135.15 -30.8 L 124.15 -20.06 L 124.15 -30.8 L 116.67 -30.8 Z M 180.04 0 L 188.84 0 L 179.38 -16.28 L 187.96 -30.8 L 179.16 -30.8 L 173.79 -21.25 L 168.16 -30.8 L 159.8 -30.8 L 168.38 -16.28 L 158.92 0 L 167.72 0 L 173.88 -11.13 Z M 218.78 0 L 226.26 0 L 226.26 -8.8 L 234.18 -8.8 C 241.52 -8.8 245.04 -12.23 245.04 -19.84 C 245.04 -27.1 241.61 -30.8 234.18 -30.8 L 218.78 -30.8 Z M 234.18 -14.96 L 226.26 -14.96 L 226.26 -24.64 L 234.04 -24.64 C 236.38 -24.64 237.56 -23.14 237.56 -19.8 C 237.56 -16.59 236.42 -14.96 234.18 -14.96 Z M 257.81 0 L 265.29 0 L 265.29 -10.12 L 270.88 -10.12 L 276.73 0 L 284.65 0 L 278.4 -10.82 C 282.19 -12.14 284.08 -15.4 284.08 -20.55 C 284.08 -27.37 280.65 -30.8 273.78 -30.8 L 257.81 -30.8 Z M 273.74 -16.28 L 265.29 -16.28 L 265.29 -24.64 L 273.74 -24.64 C 275.54 -24.64 276.6 -23.28 276.6 -20.5 C 276.6 -17.69 275.63 -16.28 273.74 -16.28 Z M 313.31 0.44 C 323.82 0.44 329.1 -4.66 329.1 -15.44 C 329.1 -26 324.17 -31.24 313.31 -31.24 C 302.7 -31.24 297.42 -26.31 297.42 -15.44 C 297.42 -4.84 302.39 0.44 313.31 0.44 Z M 304.9 -15.44 C 304.9 -21.91 307.54 -25.08 313.31 -25.08 C 318.81 -25.08 321.62 -22 321.62 -15.44 C 321.62 -8.93 319.07 -5.72 313.31 -5.72 C 307.67 -5.72 304.9 -8.76 304.9 -15.44 Z" stroke-linecap="round" />
</g>
</g>
</g>
</svg>